<svg xmlns="http://www.w3.org/2000/svg" style="display:none">
  <symbol id="icon-sparkle" viewBox="0 0 24 24" fill="none" stroke="currentColor" stroke-width="2" stroke-linecap="round" stroke-linejoin="round">
    <path d="M12 3l1.4 4.3L17.7 9 13.4 10.4 12 14.7 10.6 10.4 6.3 9l4.3-1.7L12 3z"/>
    <path d="M5 17l.8 2.5L8.3 20l-2.5.8L5 23.3l-.8-2.5L1.7 20l2.5-.8L5 17z"/>
    <path d="M19 13l.6 1.8L21.4 15l-1.8.6L19 17.4l-.6-1.8L16.6 15l1.8-.6L19 13z"/>
  </symbol>
  <symbol id="icon-chat" viewBox="0 0 24 24" fill="none" stroke="currentColor" stroke-width="2" stroke-linecap="round" stroke-linejoin="round">
    <path d="M21 15a4 4 0 01-4 4H8l-5 3V7a4 4 0 014-4h10a4 4 0 014 4v8z"/>
    <path d="M8 9h8"/><path d="M8 13h5"/>
  </symbol>
  <symbol id="icon-document" viewBox="0 0 24 24" fill="none" stroke="currentColor" stroke-width="2" stroke-linecap="round" stroke-linejoin="round">
    <path d="M14 2H6a2 2 0 00-2 2v16a2 2 0 002 2h12a2 2 0 002-2V8l-6-6z"/>
    <path d="M14 2v6h6"/><path d="M8 13h8"/><path d="M8 17h8"/><path d="M8 9h2"/>
  </symbol>
  <symbol id="icon-bolt" viewBox="0 0 24 24" fill="none" stroke="currentColor" stroke-width="2" stroke-linecap="round" stroke-linejoin="round">
    <path d="M13 2L3 14h9l-1 8 10-12h-9l1-8z"/>
  </symbol>
  <symbol id="icon-graduation" viewBox="0 0 24 24" fill="none" stroke="currentColor" stroke-width="2" stroke-linecap="round" stroke-linejoin="round">
    <path d="M22 10l-10-5L2 10l10 5 10-5z"/>
    <path d="M6 12v5c0 1.5 2.7 3 6 3s6-1.5 6-3v-5"/>
    <path d="M22 10v6"/>
  </symbol>
  <symbol id="icon-target" viewBox="0 0 24 24" fill="none" stroke="currentColor" stroke-width="2" stroke-linecap="round" stroke-linejoin="round">
    <circle cx="12" cy="12" r="10"/><circle cx="12" cy="12" r="6"/><circle cx="12" cy="12" r="2"/>
  </symbol>
  <symbol id="icon-scale" viewBox="0 0 24 24" fill="none" stroke="currentColor" stroke-width="2" stroke-linecap="round" stroke-linejoin="round">
    <path d="M12 3v18"/><path d="M5 7h14"/><path d="M5 7l3 6H2l3-6z"/><path d="M19 7l-3 6h6l-3-6z"/>
  </symbol>
  <symbol id="icon-compass" viewBox="0 0 24 24" fill="none" stroke="currentColor" stroke-width="2" stroke-linecap="round" stroke-linejoin="round">
    <circle cx="12" cy="12" r="10"/><path d="M16 8l-2.8 6.9L8 16l2.8-6.9L16 8z"/>
  </symbol>
  <symbol id="icon-chart" viewBox="0 0 24 24" fill="none" stroke="currentColor" stroke-width="2" stroke-linecap="round" stroke-linejoin="round">
    <path d="M3 3v18h18"/><path d="M7 16v-5"/><path d="M12 16V8"/><path d="M17 16v-9"/>
  </symbol>
  <symbol id="icon-clipboard" viewBox="0 0 24 24" fill="none" stroke="currentColor" stroke-width="2" stroke-linecap="round" stroke-linejoin="round">
    <path d="M9 5H7a2 2 0 00-2 2v12a2 2 0 002 2h10a2 2 0 002-2V7a2 2 0 00-2-2h-2"/>
    <rect x="9" y="3" width="6" height="4" rx="1"/><path d="M9 12h6"/><path d="M9 16h6"/>
  </symbol>
  <symbol id="icon-bot" viewBox="0 0 24 24" fill="none" stroke="currentColor" stroke-width="2" stroke-linecap="round" stroke-linejoin="round">
    <rect x="5" y="8" width="14" height="12" rx="2"/><path d="M12 8V5"/><circle cx="12" cy="3" r="1"/>
    <path d="M9 14h.01"/><path d="M15 14h.01"/><path d="M9 18h6"/>
  </symbol>
  <symbol id="icon-clock" viewBox="0 0 24 24" fill="none" stroke="currentColor" stroke-width="2" stroke-linecap="round" stroke-linejoin="round">
    <circle cx="12" cy="12" r="10"/><path d="M12 6v6l4 2"/>
  </symbol>
  <symbol id="icon-star" viewBox="0 0 24 24" fill="currentColor" stroke="none">
    <path d="M12 2l2.4 7.4H22l-6 4.6 2.3 7-6.3-4.6L5.7 21l2.3-7-6-4.6h7.6z"/>
  </symbol>
  <symbol id="icon-trophy" viewBox="0 0 24 24" fill="none" stroke="currentColor" stroke-width="2" stroke-linecap="round" stroke-linejoin="round">
    <path d="M8 21h8"/><path d="M12 17v4"/><path d="M7 4h10v5a5 5 0 01-10 0V4z"/>
    <path d="M7 4H5a2 2 0 00-2 2v1a4 4 0 004 4"/><path d="M17 4h2a2 2 0 012 2v1a4 4 0 01-4 4"/>
  </symbol>
  <symbol id="icon-lock" viewBox="0 0 24 24" fill="none" stroke="currentColor" stroke-width="2" stroke-linecap="round" stroke-linejoin="round">
    <rect x="5" y="11" width="14" height="10" rx="2"/><path d="M8 11V8a4 4 0 118 0v3"/>
  </symbol>
</svg>
